<svg viewBox="0 0 1095 181" fill="none" xmlns="http://www.w3.org/2000/svg">
<path fill-rule="evenodd" clip-rule="evenodd" d="M20.0401 39.72L60.8401 154.2H78.8401L116.52 39.72V177H136.68V4.19999H110.28L70.4401 128.04L27.2401 4.19999H0.600098V177H20.0401V39.72ZM278.297 130.68L291.017 177H312.617L261.257 4.19999H236.297L184.697 177H204.857L217.817 130.68H278.297ZM273.977 115.08H222.377L248.537 22.92L273.977 115.08ZM406.153 109.32L444.793 177H469.033L426.073 104.76C430.233 103 434.153 100.76 437.833 98.04C441.513 95.32 444.713 92.04 447.433 88.2C450.153 84.36 452.313 79.96 453.913 75C455.513 69.88 456.313 64.04 456.313 57.48C456.313 39.08 451.033 25.64 440.473 17.16C429.913 8.51999 415.273 4.19999 396.553 4.19999H360.553V177H380.953V109.32H406.153ZM380.953 93.72V19.8H396.313C410.553 19.8 420.633 23.08 426.553 29.64C432.473 36.04 435.433 45.32 435.433 57.48C435.433 69.64 432.153 78.76 425.593 84.84C419.033 90.76 409.513 93.72 397.033 93.72H380.953ZM516.283 48.36C512.763 59.72 511.003 73.8 511.003 90.6C511.003 107.4 512.763 121.56 516.283 133.08C519.803 144.44 524.443 153.64 530.203 160.68C535.963 167.72 542.523 172.84 549.883 176.04C557.403 179.08 565.163 180.6 573.163 180.6C581.003 180.6 588.683 179.08 596.203 176.04C603.723 172.84 610.363 167.72 616.123 160.68C621.883 153.64 626.523 144.44 630.043 133.08C633.563 121.56 635.323 107.4 635.323 90.6C635.323 73.8 633.563 59.72 630.043 48.36C626.523 36.84 621.883 27.56 616.123 20.52C610.363 13.48 603.723 8.43999 596.203 5.39999C588.843 2.19999 581.163 0.599991 573.163 0.599991C565.163 0.599991 557.403 2.19999 549.883 5.39999C542.523 8.43999 535.963 13.48 530.203 20.52C524.443 27.56 519.803 36.84 516.283 48.36ZM542.203 146.04C535.323 133.4 531.883 114.92 531.883 90.6C531.883 66.28 535.323 47.8 542.203 35.16C549.083 22.52 559.403 16.2 573.163 16.2C586.923 16.2 597.243 22.52 604.123 35.16C611.003 47.8 614.443 66.28 614.443 90.6C614.443 114.92 611.003 133.4 604.123 146.04C597.243 158.68 586.923 165 573.163 165C559.403 165 549.083 158.68 542.203 146.04ZM1060.03 130.68L1072.75 177H1094.35L1042.99 4.19999H1018.03L966.431 177H986.591L999.551 130.68H1060.03ZM1055.71 115.08H1004.11L1030.27 22.92L1055.71 115.08ZM830 100H731.193V4H711V100H708V180H919V100H850.193V4H830V100ZM830 100V177H916V159.219H850.193V100H830ZM711 100H731.193V159.219H797V177H711V100Z" fill="#262626"/>
</svg>
